<svg xmlns="http://www.w3.org/2000/svg" width="1400" height="1040" viewBox="0 0 1400 1040" role="img" aria-labelledby="title desc">
  <title id="title">Tiedragon Teletyptel 2.0 architecture</title>
  <desc id="desc">Light architecture diagram showing clients, web application, PHP edge services, storage, protocol core and future production services.</desc>
  <defs>
    <style>
      .bg { fill: #f7f9fc; }
      .title { font: 700 34px "Segoe UI", Arial, sans-serif; fill: #0b326e; }
      .subtitle { font: 400 16px "Segoe UI", Arial, sans-serif; fill: #42566e; }
      .lane { fill: #ffffff; stroke: #d3dfed; stroke-width: 1.5; rx: 14; }
      .lane-title { font: 700 14px "Segoe UI", Arial, sans-serif; fill: #274a73; letter-spacing: .08em; }
      .box { fill: #ffffff; stroke: #92afd0; stroke-width: 2; rx: 10; }
      .blue { fill: #eaf4ff; stroke: #3b82d6; }
      .green { fill: #ebf8f0; stroke: #23a05e; }
      .gold { fill: #fff7df; stroke: #d69b21; }
      .red { fill: #fff0f0; stroke: #d45c5c; }
      .violet { fill: #f2f0ff; stroke: #7268cc; }
      .label { font: 700 18px "Segoe UI", Arial, sans-serif; fill: #10243c; }
      .small { font: 400 13px "Segoe UI", Arial, sans-serif; fill: #40556c; }
      .hint { font: 400 12px "Segoe UI", Arial, sans-serif; fill: #657991; }
      .arrow { stroke: #2f65a7; stroke-width: 3; fill: none; marker-end: url(#arrowHead); }
      .arrow-soft { stroke: #7f98b8; stroke-width: 2.5; fill: none; marker-end: url(#arrowHeadSoft); stroke-dasharray: 8 7; }
      .divider { stroke: #d3dfed; stroke-width: 1.5; }
      .badge { fill: #e7f1ff; stroke: #3b82d6; stroke-width: 1.5; rx: 7; }
      .badge-text { font: 700 12px "Segoe UI", Arial, sans-serif; fill: #0b326e; }
    </style>
    <marker id="arrowHead" markerWidth="12" markerHeight="12" refX="10" refY="6" orient="auto">
      <path d="M2,2 L10,6 L2,10 Z" fill="#2f65a7" />
    </marker>
    <marker id="arrowHeadSoft" markerWidth="12" markerHeight="12" refX="10" refY="6" orient="auto">
      <path d="M2,2 L10,6 L2,10 Z" fill="#7f98b8" />
    </marker>
  </defs>

  <rect class="bg" x="0" y="0" width="1400" height="1040" />
  <text class="title" x="50" y="58">Tiedragon Teletyptel 2.0 Architecture</text>
  <text class="subtitle" x="52" y="86">Open XMPP messenger with XEP-0301 real-time text, web/mobile UI, PHP relay/API, MySQL account profiles and .lng localization.</text>

  <rect class="lane" x="42" y="112" width="1316" height="130" />
  <rect class="lane" x="42" y="264" width="1316" height="178" />
  <rect class="lane" x="42" y="464" width="1316" height="164" />
  <rect class="lane" x="42" y="650" width="1316" height="138" />
  <rect class="lane" x="42" y="810" width="1316" height="118" />
  <rect class="lane" x="42" y="950" width="1316" height="58" />

  <text class="lane-title" x="62" y="138">CLIENTS</text>
  <text class="lane-title" x="62" y="290">WEB APPLICATION</text>
  <text class="lane-title" x="62" y="490">PHP EDGE LAYER</text>
  <text class="lane-title" x="62" y="676">CORE LIBRARIES AND PROTOCOL</text>
  <text class="lane-title" x="62" y="836">FUTURE PRODUCTION SERVICES</text>
  <text class="lane-title" x="62" y="976">LEGEND</text>

  <g id="clients">
    <rect class="box blue" x="78" y="154" width="250" height="66" />
    <text class="label" x="102" y="183">Desktop Browser</text>
    <text class="small" x="102" y="205">Local web client on localhost</text>

    <rect class="box blue" x="390" y="154" width="250" height="66" />
    <text class="label" x="414" y="183">Android WebView</text>
    <text class="small" x="414" y="205">Same web UI packaged later</text>

    <rect class="box blue" x="702" y="154" width="250" height="66" />
    <text class="label" x="726" y="183">iOS WebView</text>
    <text class="small" x="726" y="205">Same web UI packaged later</text>

    <rect class="box green" x="1014" y="154" width="286" height="66" />
    <text class="label" x="1038" y="183">Assistive Input</text>
    <text class="small" x="1038" y="205">Captions, RTT, future speech/sign</text>
  </g>

  <g id="webapp">
    <rect class="box blue" x="78" y="315" width="310" height="96" />
    <text class="label" x="102" y="346">php/public/chat.html</text>
    <text class="small" x="102" y="370">Chat timeline, RTT draft bubbles</text>
    <text class="small" x="102" y="392">Accounts, contacts, provider tabs</text>

    <rect class="box gold" x="438" y="315" width="250" height="96" />
    <text class="label" x="462" y="346">.lng Localization</text>
    <text class="small" x="462" y="370">lang/ned.lng, lang/eng.lng</text>
    <text class="small" x="462" y="392">preferredLanguage from profile</text>

    <rect class="box green" x="738" y="315" width="282" height="96" />
    <text class="label" x="762" y="346">Account Profile</text>
    <text class="small" x="762" y="370">JID, display name, peer, password option</text>
    <text class="small" x="762" y="392">local fallback plus MySQL</text>

    <rect class="box blue" x="1070" y="315" width="230" height="96" />
    <text class="label" x="1094" y="346">PWA Cache</text>
    <text class="small" x="1094" y="370">service-worker</text>
    <text class="small" x="1094" y="392">offline app and language files</text>
  </g>

  <g id="php">
    <rect class="box blue" x="78" y="514" width="295" height="82" />
    <text class="label" x="102" y="545">PHP WebSocket Relay</text>
    <text class="small" x="102" y="569">JSON RTT and RFC 7395 xmpp</text>

    <rect class="box green" x="425" y="514" width="270" height="82" />
    <text class="label" x="449" y="545">PHP Account API</text>
    <text class="small" x="449" y="569">GET/POST account profile</text>

    <rect class="box gold" x="747" y="514" width="250" height="82" />
    <text class="label" x="771" y="545">MySQL / MariaDB</text>
    <text class="small" x="771" y="569">teletyptel.account_profiles</text>

    <rect class="box red" x="1049" y="514" width="250" height="82" />
    <text class="label" x="1073" y="545">Local Config</text>
    <text class="small" x="1073" y="569">php/config.php, ignored by Git</text>
  </g>

  <g id="core">
    <rect class="box blue" x="78" y="704" width="295" height="58" />
    <text class="label" x="102" y="735">C# XMPP Core</text>
    <text class="small" x="102" y="755">RFC 6120/6121, JID, stanzas</text>

    <rect class="box green" x="425" y="704" width="295" height="58" />
    <text class="label" x="449" y="735">XEP-0301 RTT Engine</text>
    <text class="small" x="449" y="755">RttPacket, composer, deltas, sync</text>

    <rect class="box gold" x="772" y="704" width="250" height="58" />
    <text class="label" x="796" y="735">LngPdk Direction</text>
    <text class="small" x="796" y="755">Package format for UI resources</text>

    <rect class="box blue" x="1074" y="704" width="225" height="58" />
    <text class="label" x="1098" y="735">Tests / Tools</text>
    <text class="small" x="1098" y="755">smoke, validators, demos</text>
  </g>

  <g id="future">
    <rect class="box violet" x="78" y="862" width="255" height="42" />
    <text class="label" x="102" y="890">Prosody / ejabberd</text>

    <rect class="box violet" x="387" y="862" width="255" height="42" />
    <text class="label" x="411" y="890">XMPP Federation</text>

    <rect class="box violet" x="696" y="862" width="255" height="42" />
    <text class="label" x="720" y="890">WebRTC / Jingle</text>

    <rect class="box violet" x="1005" y="862" width="294" height="42" />
    <text class="label" x="1029" y="890">Provider Tabs / Services</text>
  </g>

  <path class="arrow" d="M203 220 L203 315" />
  <path class="arrow-soft" d="M515 220 C515 250 233 270 233 315" />
  <path class="arrow-soft" d="M827 220 C827 252 233 268 233 315" />
  <path class="arrow-soft" d="M1157 220 C1157 248 926 276 879 315" />

  <path class="arrow" d="M226 411 L226 514" />
  <path class="arrow" d="M879 411 L560 514" />
  <path class="arrow" d="M695 555 L747 555" />
  <path class="arrow-soft" d="M1049 555 L997 555" />
  <path class="arrow-soft" d="M879 514 L879 411" />

  <path class="arrow" d="M226 596 L226 704" />
  <path class="arrow" d="M226 596 C310 644 468 661 572 704" />
  <path class="arrow-soft" d="M560 596 C650 645 795 658 897 704" />

  <path class="arrow-soft" d="M226 762 L206 862" />
  <path class="arrow-soft" d="M572 762 L515 862" />
  <path class="arrow-soft" d="M897 762 L824 862" />
  <path class="arrow-soft" d="M1186 762 L1152 862" />

  <g id="legend">
    <rect class="badge" x="92" y="984" width="74" height="22" />
    <text class="badge-text" x="112" y="1000">NOW</text>
    <text class="hint" x="184" y="1000">Solid arrows show the current local demo flow.</text>
    <line class="arrow-soft" x1="520" y1="994" x2="610" y2="994" />
    <text class="hint" x="630" y="1000">Dashed arrows show planned production and packaging paths.</text>
  </g>
</svg>
