<svg xmlns="http://www.w3.org/2000/svg" width="24" height="24" viewBox="0 0 24 24" role="img" aria-label="sint smiley">
  <defs>
    <linearGradient id="face" x1="5" y1="7" x2="19" y2="21" gradientUnits="userSpaceOnUse">
      <stop offset="0" stop-color="#fff27a"/>
      <stop offset="1" stop-color="#ffc928"/>
    </linearGradient>
  </defs>
  <path fill="#d92435" d="M6.4 7.8c1.9-4.1 5-5.6 9.4-4.7-.5 1.8-.3 3.4.7 5.1-3.3-.7-6.6-.8-10.1-.4Z"/>
  <path fill="#fff" d="M5.1 7.3c3.9-.9 7.9-.8 12 .3.7.2 1 .8.8 1.5-.2.6-.9 1-1.6.8-3.5-.9-7-.9-10.4-.2-.7.1-1.3-.3-1.5-.9-.1-.7.1-1.3.7-1.5Z"/>
  <circle cx="12" cy="14" r="7" fill="url(#face)" stroke="#1f2937" stroke-width="1"/>
  <circle cx="9.3" cy="12.5" r="1.1" fill="#1f2937"/>
  <circle cx="14.7" cy="12.5" r="1.1" fill="#1f2937"/>
  <path fill="none" stroke="#1f2937" stroke-linecap="round" stroke-width="1.3" d="M8.8 16.2c1.8 1.6 4.6 1.6 6.4 0"/>
  <circle cx="17.1" cy="3.7" r="2" fill="#fff" stroke="#d7dee8" stroke-width=".7"/>
</svg>
